<mxfile host="Electron" modified="2023-06-28T15:58:28.279Z" agent="Mozilla/5.0 (Windows NT 10.0; Win64; x64) AppleWebKit/537.36 (KHTML, like Gecko) draw.io/21.4.0 Chrome/112.0.5615.204 Electron/24.5.1 Safari/537.36" etag="5kfq2fsLOYOdc3Y4luEG" version="21.4.0" type="device">
  <diagram name="Page-1" id="4I2zJMP6fPbmH2adfHKz">
    <mxGraphModel dx="274" dy="158" grid="1" gridSize="10" guides="1" tooltips="1" connect="1" arrows="1" fold="1" page="1" pageScale="1" pageWidth="827" pageHeight="1169" math="0" shadow="0">
      <root>
        <mxCell id="0" />
        <mxCell id="1" parent="0" />
        <mxCell id="jOVSfKuzwhf96DGorkAo-1" style="edgeStyle=orthogonalEdgeStyle;rounded=0;orthogonalLoop=1;jettySize=auto;html=1;" edge="1" parent="1" source="tfoxWXDdU5jyKTtbno_l-1">
          <mxGeometry relative="1" as="geometry">
            <mxPoint x="479.9999999999999" y="120" as="targetPoint" />
          </mxGeometry>
        </mxCell>
        <mxCell id="tfoxWXDdU5jyKTtbno_l-1" value="" style="rounded=0;whiteSpace=wrap;html=1;movable=0;resizable=0;rotatable=0;deletable=0;editable=0;locked=1;connectable=0;" parent="1" vertex="1">
          <mxGeometry x="320" y="80" width="120" height="80" as="geometry" />
        </mxCell>
        <mxCell id="tfoxWXDdU5jyKTtbno_l-2" value="" style="endArrow=classic;html=1;rounded=0;exitX=1;exitY=0.5;exitDx=0;exitDy=0;" parent="1" source="uWq-LNssUS6APJ5jSLnP-1" edge="1">
          <mxGeometry width="50" height="50" relative="1" as="geometry">
            <mxPoint x="280" y="100" as="sourcePoint" />
            <mxPoint x="320" y="120" as="targetPoint" />
          </mxGeometry>
        </mxCell>
        <mxCell id="tfoxWXDdU5jyKTtbno_l-7" value="Delay line" style="text;html=1;strokeColor=none;fillColor=none;align=center;verticalAlign=middle;whiteSpace=wrap;rounded=0;fontFamily=UGent Panno Text;fontSize=22;" parent="1" vertex="1">
          <mxGeometry x="335" y="80" width="90" height="30" as="geometry" />
        </mxCell>
        <mxCell id="uWq-LNssUS6APJ5jSLnP-1" value="&lt;font color=&quot;#e0a458&quot; face=&quot;tabler-icons&quot;&gt;&lt;/font&gt; input" style="text;html=1;strokeColor=none;fillColor=none;align=center;verticalAlign=middle;whiteSpace=wrap;rounded=0;fontFamily=UGent Panno Text;fontSize=16;" parent="1" vertex="1">
          <mxGeometry x="230" y="110" width="50" height="20" as="geometry" />
        </mxCell>
        <mxCell id="uWq-LNssUS6APJ5jSLnP-3" value="&lt;font color=&quot;#e0a458&quot; face=&quot;tabler-icons&quot;&gt;&lt;/font&gt;&amp;nbsp;output" style="text;html=1;strokeColor=none;fillColor=none;align=center;verticalAlign=middle;whiteSpace=wrap;rounded=0;fontFamily=UGent Panno Text;fontSize=16;" parent="1" vertex="1">
          <mxGeometry x="480" y="110" width="60" height="20" as="geometry" />
        </mxCell>
        <mxCell id="uWq-LNssUS6APJ5jSLnP-7" value="" style="endArrow=classicThin;dashed=1;html=1;rounded=0;endFill=1;" parent="1" edge="1">
          <mxGeometry width="50" height="50" relative="1" as="geometry">
            <mxPoint x="325" y="120" as="sourcePoint" />
            <mxPoint x="435" y="110" as="targetPoint" />
            <Array as="points">
              <mxPoint x="330" y="120" />
              <mxPoint x="330" y="150" />
              <mxPoint x="430" y="150" />
              <mxPoint x="430" y="140" />
              <mxPoint x="340" y="140" />
              <mxPoint x="340" y="130" />
              <mxPoint x="430" y="130" />
              <mxPoint x="430" y="120" />
              <mxPoint x="340" y="120" />
              <mxPoint x="340" y="110" />
            </Array>
          </mxGeometry>
        </mxCell>
      </root>
    </mxGraphModel>
  </diagram>
</mxfile>
